PathFileType	4	(X/Y/Z)	Kaydara	
DataRate	CameraRate	NumFrames	NumMarkers	Units	OrigDataRate	OrigDataStartFrame	OrigNumFrames	
240.00	240.00	4	72	mm	240.00	89	355	
Frame#	Time	Hips			RightUpLeg			RightLeg			RightFoot			RightFoot_End			LeftUpLeg			LeftLeg			LeftFoot			LeftFoot_End			Spine			Spine1			Spine2			Spine3			Neck			Head			Head_End			RightShoulder			RightArm			RightForeArm			RightHand			RightHandThumb1			RightHandThumb2			RightHandThumb3			RightHandThumb3_End			RightInHandIndex			RightHandIndex1			RightHandIndex2			RightHandIndex3			RightHandIndex3_End			RightInHandMiddle			RightHandMiddle1			RightHandMiddle2			RightHandMiddle3			RightHandMiddle3_End			RightInHandRing			RightHandRing1			RightHandRing2			RightHandRing3			RightHandRing3_End			RightInHandPinky			RightHandPinky1			RightHandPinky2			RightHandPinky3			RightHandPinky3_End			LeftShoulder			LeftArm			LeftForeArm			LeftHand			LeftHandThumb1			LeftHandThumb2			LeftHandThumb3			LeftHandThumb3_End			LeftInHandIndex			LeftHandIndex1			LeftHandIndex2			LeftHandIndex3			LeftHandIndex3_End			LeftInHandMiddle			LeftHandMiddle1			LeftHandMiddle2			LeftHandMiddle3			LeftHandMiddle3_End			LeftInHandRing			LeftHandRing1			LeftHandRing2			LeftHandRing3			LeftHandRing3_End			LeftInHandPinky			LeftHandPinky1			LeftHandPinky2			LeftHandPinky3			LeftHandPinky3_End			
		X1	Y1	Z1	X2	Y2	Z2	X3	Y3	Z3	X4	Y4	Z4	X5	Y5	Z5	X6	Y6	Z6	X7	Y7	Z7	X8	Y8	Z8	X9	Y9	Z9	X10	Y10	Z10	X11	Y11	Z11	X12	Y12	Z12	X13	Y13	Z13	X14	Y14	Z14	X15	Y15	Z15	X16	Y16	Z16	X17	Y17	Z17	X18	Y18	Z18	X19	Y19	Z19	X20	Y20	Z20	X21	Y21	Z21	X22	Y22	Z22	X23	Y23	Z23	X24	Y24	Z24	X25	Y25	Z25	X26	Y26	Z26	X27	Y27	Z27	X28	Y28	Z28	X29	Y29	Z29	X30	Y30	Z30	X31	Y31	Z31	X32	Y32	Z32	X33	Y33	Z33	X34	Y34	Z34	X35	Y35	Z35	X36	Y36	Z36	X37	Y37	Z37	X38	Y38	Z38	X39	Y39	Z39	X40	Y40	Z40	X41	Y41	Z41	X42	Y42	Z42	X43	Y43	Z43	X44	Y44	Z44	X45	Y45	Z45	X46	Y46	Z46	X47	Y47	Z47	X48	Y48	Z48	X49	Y49	Z49	X50	Y50	Z50	X51	Y51	Z51	X52	Y52	Z52	X53	Y53	Z53	X54	Y54	Z54	X55	Y55	Z55	X56	Y56	Z56	X57	Y57	Z57	X58	Y58	Z58	X59	Y59	Z59	X60	Y60	Z60	X61	Y61	Z61	X62	Y62	Z62	X63	Y63	Z63	X64	Y64	Z64	X65	Y65	Z65	X66	Y66	Z66	X67	Y67	Z67	X68	Y68	Z68	X69	Y69	Z69	X70	Y70	Z70	X71	Y71	Z71	X72	Y72	Z72	

89	0.367	5921.0129	906.651	56.2195	5990.728968170228	887.4819744835726	-0.5679243433579297	5919.4111313144	482.9193285357669	-80.84620811534606	5912.09600325798	103.03415727402958	-162.07457771433116	5837.036436563157	26.79662704819584	-3.6827883521675133	5859.2132277793735	897.0106308961782	124.47282944968563	5793.251998067828	494.05313944356215	217.7333255866715	5751.271500183852	62.73616558117507	299.19031488251454	5619.637294303543	-12.987161551718724	183.18401134131267	5883.374649214431	1035.3815844473793	6.38366023719404	5837.595146160712	1104.990242505591	-43.790056624697314	5784.664507426164	1171.5103115523896	-98.7957074478612	5726.4572899224895	1224.9446604003242	-155.692449394138	5663.655480632709	1282.141766964576	-215.6860404713592	5605.1228229413855	1334.0666654758563	-269.2735104813822	5485.34232329995	1428.007362354242	-317.34248022122625	5704.816198173214	1261.8651528929713	-218.560918166897	5753.055504031321	1240.5998903933446	-333.0169428077153	5748.149160896712	975.6691995772836	-280.1111597256623	5746.753072482711	693.8468252756425	-239.01295686910902	5750.072417372971	660.8595417880189	-253.6395905951979	5734.526193675977	632.8895767265872	-261.0279865054014	5722.904885376972	612.8538670990259	-262.88787365578946	5712.536672864327	595.6741058292016	-261.6278123534788	5749.236489995305	654.5175168136732	-243.0334907983379	5742.680786571797	598.0485134639647	-237.73210128614554	5728.9894601531205	565.7879833383547	-234.9553174550259	5716.622759808284	554.4297457322999	-236.81745885656835	5703.786661225344	550.8956901865224	-240.7792867908036	5746.8686967670465	655.3013152513439	-234.32564069389267	5739.196323899275	600.6450993591909	-224.44448350278122	5723.953801290591	565.7378165639595	-220.2838161925479	5708.888629686146	552.1762889854299	-221.98786782299226	5694.773022090103	548.3783206323644	-226.05907091604013	5745.449338375301	657.2097419745375	-228.27703055933986	5737.593444839033	609.6309383642212	-214.0778813117897	5724.0098939120635	579.5946164632161	-209.31171485974474	5709.3200187076	566.7200479929942	-210.3501656568959	5695.972757337066	563.2469131058378	-213.8913136039256	5743.324349664648	661.7253291313567	-221.70974860096416	5735.096041550095	620.5622692258107	-204.52926191981416	5723.787367806974	597.3252982229558	-198.99677246093347	5712.863796138828	588.3287771126516	-198.92417297216392	5700.920173198329	585.4790373377093	-201.58335296162988	5663.728433406655	1265.1224113822566	-171.47521935617206	5603.2673585028815	1221.2548107300863	-68.25109889074659	5719.001231422538	1008.5333208164175	-141.2416146833781	5851.485741267631	774.7876660670854	-192.1655695801463	5833.803053869519	761.7489622989502	-217.64928580835627	5838.1652187379295	746.1135621378868	-249.36161474969876	5843.614288719522	732.671007306466	-270.65066835033144	5850.219709522435	719.2795989580319	-287.7179768722667	5839.107529379687	750.5076213088771	-216.6774363017472	5836.569869165095	707.7795454975204	-253.17507143617973	5843.974663985083	682.7959785467749	-281.0234750922608	5851.844798770325	675.2675774377765	-297.49727842503864	5860.56231390696	674.4351834839831	-310.56634525540596	5846.189984996425	745.2739938256791	-213.36014332655677	5847.543112130402	700.7660874719952	-247.16381643923793	5856.57741619063	672.9580090892721	-276.9989285026071	5866.530344939902	663.6132686636416	-296.6085766451386	5876.291493036698	662.5751164252592	-310.7794866481527	5851.1806327935565	742.5933496126302	-210.06230520913056	5856.497746030439	700.1635189807586	-237.42764254298555	5865.346097188183	675.4387443080457	-262.8137587390237	5875.463752750171	666.166315475139	-281.4004771408516	5884.886816387237	665.0676148918034	-294.5691044343383	5857.619517259772	741.3201688376122	-205.3836833291143	5866.203800515398	701.3586439820726	-227.53390036400225	5874.786200594814	680.9855300645653	-246.7784067706673	5882.8901942239245	673.944309570541	-259.81138735778177	5891.654244266765	672.8111221923527	-271.1749394373188
90	0.371	5921.0129	906.651	56.2195	5990.706747194134	887.5809569351565	-0.32185251144023086	5919.7176139497415	482.95917455692677	-80.57959320516649	5912.313068519609	103.15000407216806	-161.9067402032002	5837.259332615481	26.91119405802993	-3.513575557017536	5859.213775387191	896.9016671115266	124.21587950589026	5793.451469569333	493.9580813025887	217.65386108555873	5751.541487205776	62.720091410891555	299.3736622008376	5619.932225167368	-13.000014599663931	183.3490453300698	5883.473363159132	1035.424154899493	6.424802755894409	5837.751998388301	1105.09146294134	-43.712536049433695	5784.896582003911	1171.6873178175	-98.68510648470306	5726.783124483396	1225.2095337265662	-155.56728330993246	5664.077023257522	1282.4995963312085	-215.54240104784355	5605.630047102522	1334.5078548293948	-269.11390911192706	5485.841353241764	1428.427160938352	-317.18106397467	5705.212917731549	1262.312701990954	-218.27189823308083	5753.79996642858	1241.8225778957471	-332.1762441989535	5750.604820500024	977.4823822502223	-278.93189435802327	5751.15084248924	696.0047772574408	-237.75350273850887	5755.087526577517	663.2339345914298	-252.1109155227886	5740.267559214344	635.2730122918856	-259.623386663894	5729.120188141522	615.2138595352013	-261.60338265621874	5719.119848708531	597.98911253722	-260.4722827762628	5754.182826961353	656.8196892617865	-241.56779938586786	5748.396470058218	600.3978393834246	-236.2197278289391	5735.300989603577	568.0924938139975	-233.58743042441733	5723.304139180657	556.6843507509109	-235.61270804013262	5710.773769119128	553.0941192522955	-239.75901292808248	5751.704563108728	657.5172672967307	-232.96165211500178	5744.7228169286855	602.8604289666152	-223.08992328875019	5730.113484407454	567.8926170920413	-219.10071139386224	5715.486367054607	554.2653010790452	-221.00819932859864	5701.701316840169	550.4031537984339	-225.28447121414845	5750.186855885888	659.3641792196034	-226.98450034335553	5742.862570963661	611.7331833582092	-212.85119172276885	5729.812457918804	581.6322149316279	-208.24856589819066	5715.535321190241	568.6878744588065	-209.49073496996746	5702.494223199426	565.151403145406	-213.22824760765917	5747.93149494178	663.8027491917899	-220.51342393793968	5740.108405174586	622.5463774600838	-203.44729961452995	5729.19578667834	599.2393145473911	-198.06748874964802	5718.558223010283	590.183036885922	-198.15398956030685	5706.877152331385	587.2720897022324	-200.9931637679838	5664.106232413025	1265.3205683277354	-171.49430067392925	5603.589786990239	1221.0941580157826	-69.15801383120676	5720.6841725000595	1009.4979019425672	-141.65982714586346	5854.374099016918	777.057880922011	-191.82694549347346	5837.323566336518	764.3459425080266	-217.38579940311817	5842.120369580277	748.7992287136578	-248.91824927450565	5847.812634955049	735.4012976895499	-270.10362370099335	5854.569907859472	722.0324297348052	-287.10296797458614	5842.483228211188	753.0973699965333	-216.533503225375	5840.424548712275	710.689164164501	-253.25599319487114	5848.106948329241	685.7988170976242	-281.07247744753954	5856.130375989267	678.2464939408774	-297.38799164838633	5864.961757120624	677.3390713627622	-310.2326572318631	5849.3845697173365	747.7998487994982	-213.2581469293703	5851.10693139267	703.569410769881	-247.30387402678886	5860.418636648926	675.8534240327557	-277.1087245712919	5870.544260805058	666.4752013252262	-296.5295946731388	5880.424045304714	665.3527074704441	-310.4560345933329	5854.235309722497	745.067166444551	-209.9862980412221	5859.7626772082685	702.8445318904836	-237.5972652639779	5868.826142447238	678.1897307930541	-262.96127043221327	5879.09621317679	668.87953876545	-281.3681621710139	5888.624113271051	667.6989450903229	-294.3079989623268	5860.496921995006	743.7147740845313	-205.31458191099622	5869.165829496551	703.8988037775473	-227.70146190932874	5877.877958192643	683.5647494884205	-246.93382993393314	5886.072552352208	676.4877741646088	-259.83833729927676	5894.917631218568	675.277317784799	-271.0007681052585
91	0.375	5921.0129	906.651	56.2195	5990.686376902027	887.6809071707492	-0.07445158881788005	5920.016996774474	483.0030183741167	-80.31863083587233	5912.521045157816	103.26762716978193	-161.74029679069002	5837.473424251795	27.028352010463454	-3.3452175708672414	5859.213068635628	896.7921348211792	123.95808549136893	5793.650913303006	493.8628512500087	217.57601990442112	5751.808967329755	62.70388342838606	299.5574487622774	5620.22453210297	-13.013056994185925	183.51465803399873	5883.569378258179	1035.4649020297375	6.463741065462121	5837.903357904118	1105.1884199916742	-43.637295240036984	5785.120483692981	1171.8577283940083	-98.57619436897271	5727.098941856717	1225.466544433875	-155.44219856644187	5664.48672218695	1282.848289785511	-215.39721221090863	5606.123949351282	1334.9388439641932	-268.9513639130232	5486.328571682265	1428.8381317958015	-317.0173408416078	5705.597265880885	1262.7517847015165	-217.98060344668232	5754.5237739220265	1243.0328251049125	-331.3198633934829	5753.062624586608	979.2939061329135	-277.7559875614852	5755.595457968681	698.240400797758	-236.5634812847244	5760.14816383991	665.705718344934	-250.6427814671249	5746.061420216918	637.7726603168938	-258.27752169810753	5735.39426086502	617.7023073329716	-260.37869604436185	5725.7682421061245	600.4420415115983	-259.3794401431111	5759.179307545323	659.2181050994707	-240.170123095276	5754.174183490462	602.8679714819002	-234.7820642861314	5741.684756831824	570.5341460106807	-232.29919464057224	5730.063084269366	559.0846355115776	-234.48842022268343	5717.842165811181	555.4442037348726	-238.81834932629593	5756.594120059532	659.8262207576153	-231.67178896782346	5750.316512152747	605.1909644266867	-221.81932339470546	5736.351940371522	570.1799404081424	-218.00774376992857	5722.1695124779035	556.4968928025418	-220.12002399148423	5708.719194118372	552.5769864593461	-224.60061471372313	5754.9802586386595	661.6087075533953	-225.77025533050465	5748.201573115077	613.9429129552418	-211.7152523619178	5735.695403197659	583.7918368102348	-207.28233751208032	5721.837628285601	570.78713037551	-208.72995052102027	5709.106724483067	567.1932193303328	-212.66332064368453	5752.596773525068	665.9661398201995	-219.3998771336098	5745.193097298385	624.6299003927974	-202.4623657806275	5734.68554089968	601.2634464143429	-197.24134717947499	5724.339103970942	592.1538176728668	-197.48877426438008	5712.924321739074	589.1866245411376	-200.50781985690938	5664.473939632133	1265.5097332346575	-171.5137328981127	5603.910747260678	1220.9234211694647	-70.07338351712103	5722.361453072306	1010.4721581834083	-142.11215742323145	5857.255132472675	779.3955095530721	-191.56627547219225	5840.843682290264	767.0162053874897	-217.19125917760132	5846.065990401103	751.5575623020584	-248.5407198445486	5851.993022598343	738.2044468101813	-269.62128684179663	5858.893351957231	724.8588098769617	-286.55261396614134	5845.852783214467	755.7641588867679	-216.46101306706842	5844.262755672132	713.6885274542568	-253.40397285551722	5852.2100690542975	688.8949272412252	-281.18760393219065	5860.378364882638	681.3164666112204	-297.344905931568	5869.3162782135705	680.329208271335	-309.96567741876333	5852.567483928499	750.4037367802845	-213.23066895748684	5854.646017970271	706.4636971083796	-247.5158359644454	5864.2205733774035	678.8437337954746	-277.2898287324497	5874.508391682854	669.4293958647289	-296.522216439265	5884.498624175792	668.2173199041472	-310.2048397941955	5857.274715419867	747.6194540458878	-209.98707844838975	5862.997623076009	705.6161606046321	-237.84325699141482	5872.2628216577505	681.0348239776147	-263.18506774245134	5882.67480758253	671.6843630224871	-281.412649696877	5892.299669312454	670.4169649574931	-294.12442025968227	5863.354887191373	746.187509651776	-205.32513326447173	5872.092485438596	706.5282306149438	-227.9500049615503	5880.922602872062	686.236077679915	-247.1708504594877	5889.199642972768	679.1215422544244	-259.9475918287593	5898.118489474169	677.8294791631695	-270.9097329895532
92	0.379	5921.0129	906.651	56.2195	5990.66783458815	887.7816947837883	0.1740929360386405	5920.308936505794	483.05077265319784	-80.06346236819462	5912.71976857182	103.38690329004456	-161.5753670991225	5837.678541941282	27.147995051037302	-3.1778267614972786	5859.211126894992	896.6821722812604	123.6996576207402	5793.850168208922	493.7675844262529	217.499868787707	5752.07383297955	62.68760576190542	299.7416728107022	5620.514112132558	-13.026248749136055	183.6808542657022	5883.662708708825	1035.503794080674	6.500370678968515	5838.049283096102	1105.2811044313487	-43.564479036787084	5785.336293672423	1172.0215484565538	-98.46915227238779	5727.404811130972	1225.7157066964542	-155.3173896833015	5664.884634518471	1283.187869301075	-215.250683382133	5606.604576374125	1335.35966321984	-268.78609517890743	5486.8040227511265	1429.240314949688	-316.85151643266306	5705.969259196436	1263.1822954595596	-217.68734088360873	5755.226205594522	1244.229562034585	-330.44829753312615	5755.521078464664	981.1026614923278	-276.58428426112613	5760.084363856729	700.5545049041781	-235.44441130330034	5765.251250590143	668.2759506775066	-249.23670156962518	5751.904168846268	640.3899926357994	-256.99175881688825	5741.723167655095	620.3209882997623	-259.2150954410149	5732.477678349449	603.034940624918	-258.3505084450656	5764.222956007348	661.7139014346609	-238.84205208449256	5760.010434348381	605.4606398786551	-233.42078257772192	5748.136879870277	573.1151155149505	-231.09223188623469	5736.89546170699	561.6330102582906	-233.44610785444402	5724.987503590604	557.9485195786912	-237.9586652184847	5761.534518676205	662.2293413136595	-230.4576771015663	5755.974125169036	607.6384652696888	-220.63440875409722	5742.6654781852885	572.602034023331	-217.0065878547921	5728.934080468949	558.873595678209	-219.32488650840781	5715.822438192327	554.9025318837737	-224.00889041140067	5759.826800924464	663.9444976084395	-224.63594570735373	5753.60740630058	616.2618340022042	-210.67182687588476	5741.655349822744	586.0756152661234	-206.41475365606775	5728.223286341765	573.0202233893888	-208.06941327576067	5715.80639594394	569.3749404445243	-212.19798834629998	5757.317569997746	668.2166609683961	-218.37077454021755	5750.347309721455	626.814483058166	-201.57624488086788	5740.253585725163	603.3996794532816	-196.52010653456995	5730.203209931326	594.2433049288423	-196.93019911322628	5719.058273708718	591.2249786909044	-200.12886621702162	5664.831666988807	1265.6900570295952	-171.53361559099167	5604.230454948342	1220.7432833649596	-70.99669906005923	5724.032547144247	1011.4560971870603	-142.5984039494163	5860.127249518947	781.8006577122254	-191.38458570133926	5844.361472231571	769.7597076518321	-217.06663659211648	5849.999690742707	754.388564054639	-248.2301475565955	5856.1527489496175	741.0805185496779	-269.20486352585107	5863.187086315164	727.7588827510057	-286.0681744493081	5849.214275025441	758.5080338158886	-216.46083321047746	5848.082061259912	716.777755776037	-253.61968807832307	5856.281191303848	692.084540788952	-281.3695549332355	5864.585682221036	684.4777975050421	-297.3688513840787	5873.622591131361	683.4059550726274	-309.7664212681005	5855.736847396941	753.0857902838601	-213.27853757945917	5858.158015937499	709.4491986074426	-247.80032411445112	5867.980434096641	681.9293233289823	-277.54288328205456	5878.4196488807975	672.4763273893403	-296.5872386503096	5888.511920605105	671.1694958077562	-310.0269007376153	5860.297010778076	750.2504038868615	-210.0654499980962	5866.200355313172	708.4787538430105	-238.16620996376435	5875.65353381661	683.9744996923044	-263.4857566005562	5886.196653110172	674.5813570584079	-281.5346924042018	5895.91039639133	673.2223091305337	-294.01930970032237	5866.191632121179	748.7386358036663	-205.41613178249457	5874.981668065868	709.247370141625	-228.28011853822412	5883.917749547413	689.0000790721735	-247.49006283939627	5892.268882003228	681.8462543177179	-260.1398498263359	5901.254056913523	680.4683098481158	-270.9026985890467
